HIERARCHY
ROOT Hips
{
	OFFSET -0.001795 -0.223333 0.028219
	CHANNELS 6 Xposition Yposition Zposition Zrotation Yrotation Xrotation 
	JOINT LeftUpLeg
	{
		OFFSET 0.069520 -0.091406 -0.006815
		CHANNELS 3 Zrotation Yrotation Xrotation
		JOINT LeftLeg
		{
			OFFSET 0.034277 -0.375199 -0.004496
			CHANNELS 3 Zrotation Yrotation Xrotation
			JOINT LeftFoot
			{
				OFFSET -0.013596 -0.397961 -0.043693
				CHANNELS 3 Zrotation Yrotation Xrotation
				JOINT LeftToe
				{
					OFFSET 0.026358 -0.055791 0.119288
					CHANNELS 3 Zrotation Yrotation Xrotation
					End Site
					{
						OFFSET 0.000000 0.000000 0.000000
					}
				}
			}
		}
	}
	JOINT RightUpLeg
	{
		OFFSET -0.067670 -0.090522 -0.004320
		CHANNELS 3 Zrotation Yrotation Xrotation
		JOINT RightLeg
		{
			OFFSET -0.038290 -0.382569 -0.008850
			CHANNELS 3 Zrotation Yrotation Xrotation
			JOINT RightFoot
			{
				OFFSET 0.015774 -0.398415 -0.042312
				CHANNELS 3 Zrotation Yrotation Xrotation
				JOINT RightToe
				{
					OFFSET -0.025372 -0.048144 0.123348
					CHANNELS 3 Zrotation Yrotation Xrotation
					End Site
					{
						OFFSET 0.000000 0.000000 0.000000
					}
				}
			}
		}
	}
	JOINT Spine
	{
		OFFSET -0.002533 0.108963 -0.026696
		CHANNELS 3 Zrotation Yrotation Xrotation
		JOINT Spine1
		{
			OFFSET 0.005487 0.135180 0.001092
			CHANNELS 3 Zrotation Yrotation Xrotation
			JOINT Spine2
			{
				OFFSET 0.001457 0.052922 0.025425
				CHANNELS 3 Zrotation Yrotation Xrotation
				JOINT Neck
				{
					OFFSET -0.002778 0.213870 -0.042857
					CHANNELS 3 Zrotation Yrotation Xrotation
					JOINT Head
					{
						OFFSET 0.005152 0.064970 0.051349
						CHANNELS 3 Zrotation Yrotation Xrotation
						End Site
						{
							OFFSET 0.000000 0.000000 0.000000
						}
					}
				}
				JOINT LeftShoulder
				{
					OFFSET 0.078845 0.121749 -0.034090
					CHANNELS 3 Zrotation Yrotation Xrotation
					JOINT LeftArm
					{
						OFFSET 0.090977 0.030469 -0.008868
						CHANNELS 3 Zrotation Yrotation Xrotation
						JOINT LeftForeArm
						{
							OFFSET 0.259612 -0.012772 -0.027456
							CHANNELS 3 Zrotation Yrotation Xrotation
							JOINT LeftHand
							{
								OFFSET 0.249234 0.008986 -0.001171
								CHANNELS 3 Zrotation Yrotation Xrotation
								End Site
								{
									OFFSET 0.000000 0.000000 0.000000
								}
							}
						}
					}
				}
				JOINT RightShoulder
				{
					OFFSET -0.081759 0.118833 -0.038615
					CHANNELS 3 Zrotation Yrotation Xrotation
					JOINT RightArm
					{
						OFFSET -0.096012 0.032551 -0.009143
						CHANNELS 3 Zrotation Yrotation Xrotation
						JOINT RightForeArm
						{
							OFFSET -0.253742 -0.013329 -0.021401
							CHANNELS 3 Zrotation Yrotation Xrotation
							JOINT RightHand
							{
								OFFSET -0.255298 0.007772 -0.005559
								CHANNELS 3 Zrotation Yrotation Xrotation
								End Site
								{
									OFFSET 0.000000 0.000000 0.000000
								}
							}
						}
					}
				}
			}
		}
	}
}
MOTION
Frames: 8
Frame Time: 0.050000
0.000000 0.843583 0.000000 -3.546397 -4.734670 9.703782 8.877115 0.332266 -47.424399 -7.449103 3.370481 44.875510 7.576132 15.479426 -2.821801 0.000000 0.000000 0.000000 -12.222780 1.022957 -37.491486 18.766954 -10.088940 64.136364 -11.259418 -26.607201 6.323182 0.000000 0.000000 0.000000 -9.403909 2.942386 41.754877 7.877789 -1.016954 -26.009303 -0.071730 3.463480 27.328276 -5.952317 4.768022 -43.190966 0.000000 0.000000 0.000000 -32.748684 -20.367000 11.926541 -39.238282 -28.514557 2.236398 -2.931624 -36.092612 2.732972 0.000000 0.000000 0.000000 23.015316 23.492534 13.373233 48.187101 20.802219 1.173283 -0.934895 40.413573 1.719394 0.000000 0.000000 0.000000 
0.002379 0.846109 0.021840 -4.904400 -3.405084 10.690774 9.822114 0.439010 -47.494407 -7.389887 3.166709 45.660439 7.286826 14.773850 -4.187211 0.000000 0.000000 0.000000 -13.896068 0.391016 -40.213274 20.919422 -11.723660 60.634699 -10.678924 -25.324770 7.673117 0.000000 0.000000 0.000000 -8.131220 2.067130 40.202557 7.988892 -1.113845 -25.058682 -0.145833 2.643293 26.561657 -9.122107 5.690452 -46.285628 0.000000 0.000000 0.000000 -34.225529 -17.054961 9.848866 -37.900739 -28.117910 1.917678 -11.895779 -40.910113 6.626407 0.000000 0.000000 0.000000 24.382349 23.979923 13.904070 46.690263 18.496340 0.287139 -0.775782 44.494471 1.986245 0.000000 0.000000 0.000000 
0.002907 0.851700 0.042380 -4.749844 -1.456509 10.314769 9.517747 -0.176038 -45.854308 -7.693723 2.948990 45.356024 6.836727 13.722137 -4.688107 0.000000 0.000000 0.000000 -15.221400 -0.394911 -40.267276 20.218503 -11.199095 56.806857 -10.254166 -24.515099 6.836158 0.000000 0.000000 0.000000 -7.291456 1.345833 38.982521 8.024185 -1.188343 -24.183908 0.878493 3.914965 25.273239 -10.575569 6.733270 -41.908453 0.000000 0.000000 0.000000 -37.593244 -19.103333 10.530068 -35.862374 -26.601563 1.733636 -15.767700 -41.760892 8.047183 0.000000 0.000000 0.000000 23.411537 23.275153 13.912823 46.747917 17.895228 0.032120 -4.260655 42.413467 0.643495 0.000000 0.000000 0.000000 
0.001347 0.856687 0.060655 -5.529499 -0.618574 10.118008 9.910396 -0.200415 -45.007110 -7.039810 2.469626 46.268955 6.483323 12.988050 -4.265996 0.000000 0.000000 0.000000 -15.981732 -0.838424 -41.334894 19.122556 -9.775132 51.684173 -11.054531 -25.916817 7.923342 0.000000 0.000000 0.000000 -7.570198 1.300133 38.617308 8.772467 -1.328367 -24.376147 1.504691 4.972042 25.096858 -11.780087 7.266552 -42.589447 0.000000 0.000000 0.000000 -36.546628 -17.809432 8.602198 -39.242631 -26.495099 2.305388 -20.527796 -45.275406 10.818136 0.000000 0.000000 0.000000 24.042151 22.812020 14.271371 45.543388 16.700864 -0.595899 -5.831519 42.745937 0.134374 0.000000 0.000000 0.000000 
-0.002377 0.860384 0.076923 -5.939173 0.111413 10.152476 10.245558 -0.224863 -44.063535 -6.608833 2.094438 46.384686 6.248195 12.437168 -4.380677 0.000000 0.000000 0.000000 -16.153068 -1.009966 -40.832821 16.667547 -7.641072 46.598814 -11.084489 -25.969443 7.686865 0.000000 0.000000 0.000000 -7.153454 1.005527 37.895488 8.161733 -1.176749 -24.468347 2.387029 5.740500 25.468678 -12.098159 7.694894 -40.730322 0.000000 0.000000 0.000000 -37.031326 -17.836883 8.066557 -39.202673 -25.343936 2.087336 -24.858337 -49.695483 14.027071 0.000000 0.000000 0.000000 25.227484 22.427480 14.730533 43.698529 17.014718 -0.725558 -7.524315 41.651711 -0.471915 0.000000 0.000000 0.000000 
-0.007959 0.860332 0.091559 -5.894061 0.955203 10.299547 10.923265 -0.150418 -43.673395 -7.252621 2.320477 46.852800 6.068952 11.955335 -4.774458 0.000000 0.000000 0.000000 -17.171285 -1.522033 -40.949161 14.638580 -6.216174 42.986777 -12.515095 -28.001487 10.852212 0.000000 0.000000 0.000000 -6.422851 0.607762 37.923568 7.309098 -0.812187 -26.219572 3.047937 5.926965 26.333662 -14.384024 8.624353 -41.151536 0.000000 0.000000 0.000000 -37.184302 -17.242920 7.314768 -39.476449 -24.472844 1.855562 -30.850234 -52.317864 17.961697 0.000000 0.000000 0.000000 26.495813 22.112656 15.129909 42.067516 16.374944 -1.190804 -9.707080 41.136938 -1.227572 0.000000 0.000000 0.000000 
-0.015264 0.859660 0.104953 -5.883248 1.165374 10.971483 12.124371 0.240041 -43.773122 -8.222445 2.900855 47.684079 5.775976 11.112874 -5.583849 0.000000 0.000000 0.000000 -18.001157 -1.866379 -41.533173 12.351696 -4.687010 39.497279 -13.691847 -28.387094 19.508296 0.000000 0.000000 0.000000 -6.189779 0.499735 37.154299 6.963594 -0.649524 -27.195931 3.643100 6.872015 26.820354 -14.710475 9.007202 -39.849898 0.000000 0.000000 0.000000 -36.012329 -16.424421 6.075061 -41.389576 -24.126543 2.013224 -34.956676 -53.806813 20.693917 0.000000 0.000000 0.000000 27.589391 22.182787 15.985911 41.178339 16.853507 -1.251122 -13.115719 39.245700 -2.262752 0.000000 0.000000 0.000000 
-0.024046 0.856812 0.116871 -5.175045 2.119730 11.734949 12.232668 0.074572 -44.689625 -8.482875 2.943074 49.222734 5.372658 10.005316 -6.204308 0.000000 0.000000 0.000000 -19.141924 -2.464338 -41.659493 10.956809 -3.983683 37.411634 -15.460498 -29.055401 28.975200 0.000000 0.000000 0.000000 -5.617310 0.169604 37.354888 6.579180 -0.475876 -28.126021 3.498576 7.007599 26.556414 -14.704120 9.117815 -39.402692 0.000000 0.000000 0.000000 -36.484630 -16.085173 5.494354 -41.052205 -23.326344 1.831657 -36.547502 -53.629893 21.399471 0.000000 0.000000 0.000000 29.249451 22.115922 16.695723 39.020437 17.394137 -1.266968 -14.679420 36.916346 -2.664347 0.000000 0.000000 0.000000 
